<svg width="1920" height="938" viewBox="0 0 1920 938" fill="none" xmlns="http://www.w3.org/2000/svg">
<rect y="78" width="1920" height="463" fill="url(#paint0_linear_2_143)"/>
<path d="M1786 224C1786 321.754 1706.75 401 1609 401C1511.25 401 1432 321.754 1432 224C1432 126.246 1511.25 47 1609 47C1706.75 47 1786 126.246 1786 224Z" fill="url(#paint1_linear_2_143)"/>
<rect y="527" width="1920" height="3" fill="black" fill-opacity="0.53"/>
<rect y="255" width="1920" height="3" fill="black" fill-opacity="0.53"/>
<rect y="799" width="1920" height="3" fill="black" fill-opacity="0.53"/>
<rect y="119" width="1920" height="3" fill="black" fill-opacity="0.53"/>
<rect y="663" width="1920" height="3" fill="black" fill-opacity="0.53"/>
<rect y="391" width="1920" height="3" fill="black" fill-opacity="0.53"/>
<rect y="935" width="1920" height="3" fill="black" fill-opacity="0.53"/>
<rect y="51" width="1920" height="3" fill="black" fill-opacity="0.53"/>
<rect y="595" width="1920" height="3" fill="black" fill-opacity="0.53"/>
<rect y="323" width="1920" height="3" fill="black" fill-opacity="0.53"/>
<rect y="867" width="1920" height="3" fill="black" fill-opacity="0.53"/>
<rect y="187" width="1920" height="3" fill="black" fill-opacity="0.53"/>
<rect y="731" width="1920" height="3" fill="black" fill-opacity="0.53"/>
<rect y="459" width="1920" height="3" fill="black" fill-opacity="0.53"/>
<rect y="17" width="1920" height="3" fill="black" fill-opacity="0.53"/>
<rect y="561" width="1920" height="3" fill="black" fill-opacity="0.53"/>
<rect y="289" width="1920" height="3" fill="black" fill-opacity="0.53"/>
<rect y="833" width="1920" height="3" fill="black" fill-opacity="0.53"/>
<rect y="153" width="1920" height="3" fill="black" fill-opacity="0.53"/>
<rect y="697" width="1920" height="3" fill="black" fill-opacity="0.53"/>
<rect y="425" width="1920" height="3" fill="black" fill-opacity="0.53"/>
<rect y="85" width="1920" height="3" fill="black" fill-opacity="0.53"/>
<rect y="629" width="1920" height="3" fill="black" fill-opacity="0.53"/>
<rect y="357" width="1920" height="3" fill="black" fill-opacity="0.53"/>
<rect y="901" width="1920" height="3" fill="black" fill-opacity="0.53"/>
<rect y="221" width="1920" height="3" fill="black" fill-opacity="0.53"/>
<rect y="765" width="1920" height="3" fill="black" fill-opacity="0.53"/>
<rect y="493" width="1920" height="3" fill="black" fill-opacity="0.53"/>
<rect width="1920" height="3" fill="black" fill-opacity="0.53"/>
<rect y="544" width="1920" height="3" fill="black" fill-opacity="0.53"/>
<rect y="272" width="1920" height="3" fill="black" fill-opacity="0.53"/>
<rect y="816" width="1920" height="3" fill="black" fill-opacity="0.53"/>
<rect y="136" width="1920" height="3" fill="black" fill-opacity="0.53"/>
<rect y="680" width="1920" height="3" fill="black" fill-opacity="0.53"/>
<rect y="408" width="1920" height="3" fill="black" fill-opacity="0.53"/>
<rect y="68" width="1920" height="3" fill="black" fill-opacity="0.53"/>
<rect y="612" width="1920" height="3" fill="black" fill-opacity="0.53"/>
<rect y="340" width="1920" height="3" fill="black" fill-opacity="0.53"/>
<rect y="884" width="1920" height="3" fill="black" fill-opacity="0.53"/>
<rect y="204" width="1920" height="3" fill="black" fill-opacity="0.53"/>
<rect y="748" width="1920" height="3" fill="black" fill-opacity="0.53"/>
<rect y="476" width="1920" height="3" fill="black" fill-opacity="0.53"/>
<rect y="34" width="1920" height="3" fill="black" fill-opacity="0.53"/>
<rect y="578" width="1920" height="3" fill="black" fill-opacity="0.53"/>
<rect y="306" width="1920" height="3" fill="black" fill-opacity="0.53"/>
<rect y="850" width="1920" height="3" fill="black" fill-opacity="0.53"/>
<rect y="170" width="1920" height="3" fill="black" fill-opacity="0.53"/>
<rect y="714" width="1920" height="3" fill="black" fill-opacity="0.53"/>
<rect y="442" width="1920" height="3" fill="black" fill-opacity="0.53"/>
<rect y="102" width="1920" height="3" fill="black" fill-opacity="0.53"/>
<rect y="646" width="1920" height="3" fill="black" fill-opacity="0.53"/>
<rect y="374" width="1920" height="3" fill="black" fill-opacity="0.53"/>
<rect y="918" width="1920" height="3" fill="black" fill-opacity="0.53"/>
<rect y="238" width="1920" height="3" fill="black" fill-opacity="0.53"/>
<rect y="782" width="1920" height="3" fill="black" fill-opacity="0.53"/>
<rect y="510" width="1920" height="3" fill="black" fill-opacity="0.53"/>
<path d="M1768 325.5L1919.5 365.5L1919.5 541H0V368.37L95.975 308.181L177.863 364.461L265 353.5L315 383L417 249L526 298.5L569.352 269.539L637.5 280.5L790 224.181L911.5 256L1008.5 244L1124 295L1208.69 250.5L1299.5 308.699L1357.5 298.5L1406.5 308.699L1456.62 269.539L1585 354L1650.5 325.5L1701.5 342.5L1768 325.5Z" fill="black" fill-opacity="0.19"/>
<path d="M92.4759 337L0 444.087L0.49987 541H1920V401.252L1824.03 298.449L1696.56 434.984L1646.07 380.906L1595.58 434.984L1476.12 307.016L1396.14 392.685L1350.65 343.961L1305.16 392.685L1126.21 201L984.744 352.528L924.915 288.442C922.938 286.325 919.582 286.325 917.605 288.442L837.782 373.945L711.315 238.48L612.84 343.961L578.349 307.016L543.858 343.961L463.379 257.756L297.922 434.984L240.937 373.945L183.952 434.984L92.4759 337Z" fill="black"/>
<defs>
<linearGradient id="paint0_linear_2_143" x1="960" y1="78" x2="960" y2="541" gradientUnits="userSpaceOnUse">
<stop/>
<stop offset="0.442708" stop-color="#4F006B"/>
</linearGradient>
<linearGradient id="paint1_linear_2_143" x1="1609" y1="47" x2="1609" y2="274.5" gradientUnits="userSpaceOnUse">
<stop offset="0.234375" stop-color="#FACF31" stop-opacity="0.77"/>
<stop offset="0.635417" stop-color="#E72696" stop-opacity="0.88"/>
<stop offset="1" stop-color="#4F006B" stop-opacity="0.35"/>
</linearGradient>
</defs>
</svg>
